<?xml version="1.0" encoding="UTF-8"?><svg id="jod-logo" xmlns="http://www.w3.org/2000/svg" viewBox="0 0 601 350.12"><defs><style>.cls-1{fill:#ffffff;}.cls-1,.cls-2,.cls-3,.cls-4{stroke-width:0px;}.cls-2{fill:#9ad8f9;}.cls-3{fill:none;}.cls-4{fill:#852c8a;}</style></defs><g id="Layer_1-2"><path class="cls-1" d="M243.26,107.25c68.85,0,99.54,36.5,99.54,94.98,0,63.04-37.74,97.46-99.54,97.46-66.36,0-99.95-36.5-99.95-94.98s31.94-97.46,99.95-97.46ZM280.59,202.22c0-66.36-7.88-89.58-37.33-89.58s-37.74,24.06-37.74,92.07,8.71,89.58,37.74,89.58,37.33-23.23,37.33-92.07Z"/><path class="cls-1" d="M483.69,257.97h-.82c-8.56,24.88-26.89,42.72-59.9,42.72-52.56,0-74.98-35.67-74.98-93.32,0-62.63,29.75-99.12,81.09-99.12,30.15,0,46.45,14.52,52.97,29.03h.81l.13-130.28-15.39.22V1l63.12-1v291.56h13.26v6.22h-60.31v-39.81ZM482.87,166.72c0-24.05-14.67-48.11-38.71-48.11-25.26,0-35.86,27.37-35.86,89.58,0,58.89,8.15,82.12,31.38,82.12s43.19-29.86,43.19-65.11v-58.48Z"/><path class="cls-1" d="M52.56,107.25s76.45,0,76.45,0v77.04c0,23.79-.18,47.58-.19,71.37,0,11.89.03,23.79.15,35.68.17,17.68-5.06,31.13-18.72,42.75-16,13.63-37.19,17.66-57.7,15.45,19.44-3.54,18.19-30.85,18.44-41.54.47-20.05.22-28,.13-48.04-.2-38.25-.4-76.51-.59-114.76,0-1.73-.14-32.56-.17-32.56h-17.81v-5.39Z"/><circle class="cls-4" cx="29.5" cy="318.5" r="29.5"/><circle class="cls-2" cx="99.5" cy="48.5" r="29.5"/><path class="cls-3" d="M582.3,18.9c0-3.92-2.84-5.63-6.99-5.68-1.89,0-3.25.18-3.88.36v11.09h4.01c4.19,0,6.85-2.3,6.85-5.77Z"/><path class="cls-3" d="M583.85,5.78c-2.57-1.09-5.39-1.69-8.35-1.69-4.45,0-8.57,1.35-12,3.66-3.43,2.31-6.15,5.6-7.78,9.45-1.09,2.57-1.69,5.39-1.69,8.35,0,4.45,1.35,8.57,3.66,12,2.31,3.43,5.6,6.15,9.45,7.78,2.57,1.09,5.39,1.69,8.35,1.69,4.45,0,8.57-1.35,12-3.66,3.43-2.31,6.15-5.6,7.78-9.45,1.09-2.57,1.69-5.39,1.69-8.35,0-4.45-1.35-8.57-3.66-12-2.31-3.43-5.6-6.15-9.45-7.78ZM583.25,40.8c-.5-.86-1.17-3.47-2.03-7.26-.9-4.19-2.52-5.77-6.08-5.9h-3.7v13.16h-3.92V10.83c1.98-.41,4.82-.63,7.53-.63,4.19,0,6.9.77,8.79,2.48,1.53,1.35,2.39,3.43,2.39,5.77,0,4.01-2.52,6.67-5.72,7.75v.14c2.34.81,3.74,2.97,4.46,6.13.99,4.24,1.71,7.17,2.34,8.34h-4.06Z"/></g></svg>